<?xml version="1.0" encoding="iso-8859-1"?>
<!-- Generator: Adobe Illustrator 18.1.1, SVG Export Plug-In . SVG Version: 6.00 Build 0)  -->
<svg version="1.1" id="Capa_1" xmlns="http://www.w3.org/2000/svg" xmlns:xlink="http://www.w3.org/1999/xlink" x="0px" y="0px"
	 viewBox="0 0 17.458 17.458" style="enable-background:new 0 0 17.458 17.458;" xml:space="preserve">
<g>
	<g>
		<path style="fill:#030104;" d="M14.854,0H2.603C2.344,0,2.134,0.21,2.134,0.469v16.52c0,0.259,0.21,0.469,0.469,0.469h9.138
			c0.133,0,0.261-0.058,0.35-0.156l3.113-3.487c0.077-0.085,0.119-0.196,0.119-0.312V0.469C15.323,0.21,15.114,0,14.854,0z
			 M13.845,12.202l-2.793-0.003c-0.139,0-0.271,0.055-0.368,0.152c-0.099,0.098-0.152,0.23-0.152,0.368l0.01,3.497h-7V1.175h10.303
			V12.202z"/>
		<rect x="4.571" y="6.343" style="fill:#030104;" width="8.02" height="1.759"/>
		<rect x="4.571" y="9.356" style="fill:#030104;" width="8.02" height="1.758"/>
		<path style="fill:#030104;" d="M7.33,3.789h2.777V2.833H7.246C7.326,3.021,7.37,3.228,7.37,3.445
			C7.37,3.563,7.355,3.678,7.33,3.789z"/>
		<path style="fill:#030104;" d="M5.802,5.013c0.748,0,1.371-0.524,1.528-1.225H6.379V2.833h0.867
			C7.007,2.271,6.451,1.877,5.802,1.877c-0.866,0-1.569,0.702-1.569,1.568S4.936,5.013,5.802,5.013z"/>
	</g>
</g>
<g>
</g>
<g>
</g>
<g>
</g>
<g>
</g>
<g>
</g>
<g>
</g>
<g>
</g>
<g>
</g>
<g>
</g>
<g>
</g>
<g>
</g>
<g>
</g>
<g>
</g>
<g>
</g>
<g>
</g>
</svg>
